<svg width="18" height="12" xmlns="http://www.w3.org/2000/svg" fill="none">
 <g>
  <title>Layer 1</title>
  <g>
   <g transform="translate(0, -1.49877) scale(0.14871)">
    <path fill="#000000" d="m1.35852,54.12522c7.9,9.9 31.4,36.3 59.2,36.3c27.8,0 51.3,-26.399 59.2,-36.3c1.699,-2.2 1.699,-5.3 0,-7.399c-7.9,-9.9 -31.4,-36.3 -59.2,-36.3c-27.8,-0.1 -51.3,26.3 -59.2,36.2c-1.8,2.2 -1.8,5.299 0,7.499zm59.2,-27.799c13.3,0 24,10.7 24,24s-10.7,24 -24,24c-13.3,0 -24,-10.7 -24,-24s10.7,-24 24,-24z"/>
    <circle fill="#000000" r="12" cy="50.32622" cx="60.55852"/>
   </g>
  </g>
 </g>

</svg>